<svg width="800" height="200" viewBox="0 0 800 200" xmlns="http://www.w3.org/2000/svg">
  <defs>
    <linearGradient id="bg" x1="0%" y1="0%" x2="100%" y2="100%">
      <stop offset="0%" style="stop-color:#0f0c29"/>
      <stop offset="50%" style="stop-color:#302b63"/>
      <stop offset="100%" style="stop-color:#24243e"/>
    </linearGradient>
    <linearGradient id="accent" x1="0%" y1="0%" x2="100%" y2="0%">
      <stop offset="0%" style="stop-color:#6366f1"/>
      <stop offset="100%" style="stop-color:#a855f7"/>
    </linearGradient>
    <filter id="glow">
      <feGaussianBlur stdDeviation="3" result="coloredBlur"/>
      <feMerge>
        <feMergeNode in="coloredBlur"/>
        <feMergeNode in="SourceGraphic"/>
      </feMerge>
    </filter>
    <!-- MyClaw logo gradients (red-orange) -->
    <linearGradient id="mc_p0" x1="225.875" y1="569.884" x2="264.127" y2="680.556" gradientUnits="userSpaceOnUse"><stop stop-color="#FF6E65"/><stop offset="1" stop-color="#C52D26"/></linearGradient>
    <linearGradient id="mc_p1" x1="483.555" y1="569.884" x2="445.303" y2="680.556" gradientUnits="userSpaceOnUse"><stop stop-color="#FF6E65"/><stop offset="1" stop-color="#C52D26"/></linearGradient>
    <linearGradient id="mc_p2" x1="209.215" y1="143.925" x2="366.215" y2="605.425" gradientUnits="userSpaceOnUse"><stop stop-color="#FF6E65"/><stop offset="1" stop-color="#C52D26"/></linearGradient>
    <linearGradient id="mc_p3" x1="43.8049" y1="254.744" x2="112.879" y2="423.378" gradientUnits="userSpaceOnUse"><stop stop-color="#FF6E65"/><stop offset="1" stop-color="#C52D26"/></linearGradient>
    <linearGradient id="mc_p4" x1="572.436" y1="254.744" x2="641.509" y2="423.378" gradientUnits="userSpaceOnUse"><stop stop-color="#FF6E65"/><stop offset="1" stop-color="#C52D26"/></linearGradient>
  </defs>

  <!-- Background -->
  <rect width="800" height="200" fill="url(#bg)" rx="12"/>

  <!-- Grid lines (subtle) -->
  <g stroke="#ffffff08" stroke-width="1">
    <line x1="0" y1="50" x2="800" y2="50"/>
    <line x1="0" y1="100" x2="800" y2="100"/>
    <line x1="0" y1="150" x2="800" y2="150"/>
    <line x1="200" y1="0" x2="200" y2="200"/>
    <line x1="400" y1="0" x2="400" y2="200"/>
    <line x1="600" y1="0" x2="600" y2="200"/>
  </g>

  <!-- Glowing orbs -->
  <circle cx="120" cy="100" r="80" fill="#6366f1" opacity="0.12"/>
  <circle cx="680" cy="100" r="80" fill="#a855f7" opacity="0.12"/>
  <circle cx="400" cy="60" r="40" fill="#818cf8" opacity="0.08"/>

  <!-- Top accent bar -->
  <rect x="0" y="0" width="800" height="3" fill="url(#accent)" rx="2"/>

  <!-- Icon: brain/circuit -->
  <g transform="translate(62, 70)" filter="url(#glow)">
    <circle cx="0" cy="0" r="28" fill="none" stroke="url(#accent)" stroke-width="2" opacity="0.9"/>
    <!-- Circuit nodes -->
    <circle cx="0" cy="-14" r="3" fill="#818cf8"/>
    <circle cx="12" cy="7" r="3" fill="#a855f7"/>
    <circle cx="-12" cy="7" r="3" fill="#6366f1"/>
    <!-- Circuit lines -->
    <line x1="0" y1="-14" x2="0" y2="0" stroke="#818cf8" stroke-width="1.5" opacity="0.8"/>
    <line x1="0" y1="0" x2="12" y2="7" stroke="#a855f7" stroke-width="1.5" opacity="0.8"/>
    <line x1="0" y1="0" x2="-12" y2="7" stroke="#6366f1" stroke-width="1.5" opacity="0.8"/>
    <circle cx="0" cy="0" r="4" fill="#c4b5fd"/>
    <!-- Outer ticks -->
    <line x1="0" y1="-28" x2="0" y2="-34" stroke="#6366f1" stroke-width="1.5" opacity="0.6"/>
    <line x1="24" y1="14" x2="29" y2="17" stroke="#6366f1" stroke-width="1.5" opacity="0.6"/>
    <line x1="-24" y1="14" x2="-29" y2="17" stroke="#6366f1" stroke-width="1.5" opacity="0.6"/>
  </g>

  <!-- Main title -->
  <text x="400" y="88" font-family="'Segoe UI', system-ui, -apple-system, sans-serif"
        font-size="36" font-weight="700" fill="#ffffff"
        text-anchor="middle" filter="url(#glow)">
    skill-evolution-spec
  </text>

  <!-- Accent underline -->
  <rect x="240" y="98" width="320" height="2" fill="url(#accent)" rx="1" opacity="0.8"/>

  <!-- Subtitle -->
  <text x="400" y="130" font-family="'Segoe UI', system-ui, -apple-system, sans-serif"
        font-size="14" font-weight="400" fill="#a5b4fc"
        text-anchor="middle" letter-spacing="0.5">
    Give your agent real self-evolution — not prompt tricks, engineering.
  </text>

  <!-- Bottom tags -->
  <g transform="translate(400, 160)" text-anchor="middle">
    <!-- Tag 1 -->
    <rect x="-190" y="-12" width="110" height="22" rx="11" fill="#6366f1" opacity="0.25"/>
    <text x="-135" y="4" font-family="'Segoe UI', system-ui, sans-serif" font-size="11" fill="#a5b4fc">⚡ Skill Memory</text>
    <!-- Tag 2 -->
    <rect x="-68" y="-12" width="136" height="22" rx="11" fill="#7c3aed" opacity="0.25"/>
    <text x="0" y="4" font-family="'Segoe UI', system-ui, sans-serif" font-size="11" fill="#c4b5fd">🧠 Lifecycle Curator</text>
    <!-- Tag 3 -->
    <rect x="80" y="-12" width="110" height="22" rx="11" fill="#4f46e5" opacity="0.25"/>
    <text x="135" y="4" font-family="'Segoe UI', system-ui, sans-serif" font-size="11" fill="#a5b4fc">🔁 Self-Evolving</text>
  </g>

  <!-- MyClaw.ai logo (embedded) -->
  <g transform="translate(666, 162) scale(0.0394)" opacity="0.92">
    <path d="M311.215 619.789V558.925H327.215V667.425C327.215 672.948 322.738 677.425 317.215 677.425H213.215C202.169 677.425 193.215 668.471 193.215 657.425V645.347C193.215 644.4 193.272 643.457 193.447 642.527C195.936 629.279 208.521 604.741 241.715 602.425C272.339 600.289 296.517 612.787 307.688 621.436C309.075 622.51 311.215 621.543 311.215 619.789Z" fill="url(#mc_p0)"/>
    <path d="M398.215 619.789V558.925H382.215V667.425C382.215 672.948 386.692 677.425 392.215 677.425H496.215C507.261 677.425 516.215 668.471 516.215 657.425V645.347C516.215 644.4 516.158 643.457 515.983 642.527C513.494 629.279 500.909 604.741 467.715 602.425C437.091 600.289 412.913 612.787 401.742 621.436C400.355 622.51 398.215 621.543 398.215 619.789Z" fill="url(#mc_p1)"/>
    <path d="M637.123 381.135C637.123 537.296 510.46 590.875 354.214 590.875C197.969 590.875 71.3066 537.296 71.3066 381.135C71.3066 306.144 101.113 234.224 154.169 181.197C207.224 128.17 279.183 98.3799 354.214 98.3799C429.246 98.3799 501.205 128.17 554.261 181.197C607.317 234.224 637.123 306.144 637.123 381.135Z" fill="url(#mc_p2)"/>
    <path d="M113.728 331.458L179.725 291.913C170.78 272.617 155.565 256.915 136.554 247.363C117.544 237.81 95.8583 234.968 75.0271 239.301C54.1959 243.635 35.4455 254.887 21.8274 271.227C8.2092 287.567 0.525104 308.032 0.0259464 329.292C-0.473211 350.553 6.24238 371.357 19.0787 388.318C31.915 405.278 50.1164 417.397 70.7213 422.702C91.3262 428.007 113.122 426.187 132.559 417.536C151.997 408.885 167.932 393.913 177.772 375.057L113.728 331.458Z" fill="url(#mc_p3)"/>
    <path d="M594.627 331.458L528.631 291.913C537.576 272.617 552.791 256.915 571.801 247.363C590.811 237.81 612.497 234.968 633.328 239.301C654.16 243.635 672.91 254.887 686.528 271.227C700.146 287.567 707.83 308.032 708.33 329.292C708.829 350.553 702.113 371.357 689.277 388.318C676.441 405.278 658.239 417.397 637.634 422.702C617.029 428.007 595.235 426.187 575.797 417.536C556.36 408.885 540.424 393.913 530.583 375.057L594.627 331.458Z" fill="url(#mc_p4)"/>
    <path d="M275.155 176.573C274.556 176.646 273.951 176.646 273.353 176.573C271.701 176.343 270.11 175.79 268.672 174.945C267.234 174.1 265.977 172.978 264.973 171.647C263.969 170.316 263.237 168.8 262.82 167.186C262.403 165.572 262.307 163.892 262.54 162.241C262.54 161.641 270.049 102.659 235.586 63.0368C213.888 38.1981 179.725 25.5161 134.151 25.5161C132.397 25.6508 130.635 25.4219 128.974 24.8438C127.313 24.2656 125.79 23.3504 124.5 22.1561C123.209 20.9618 122.18 19.5127 121.476 17.9021C120.772 16.2914 120.408 14.5538 120.408 12.7961C120.408 11.0385 120.772 9.29899 121.476 7.68832C122.18 6.07765 123.209 4.63038 124.5 3.4361C125.79 2.24182 127.313 1.32659 128.974 0.748459C130.635 0.170324 132.397 -0.0586157 134.151 0.0760917C187.534 0.0760917 228.153 15.6091 254.957 46.376C297.153 94.9278 288.143 162.841 287.768 165.693C287.333 168.723 285.817 171.492 283.499 173.492C281.18 175.492 278.217 176.586 275.155 176.573Z" fill="#FF786E"/>
    <path d="M433.502 176.573C430.432 176.567 427.468 175.457 425.151 173.445C422.835 171.433 421.321 168.654 420.887 165.617C420.887 162.765 411.502 94.8517 453.773 46.2999C480.502 15.533 521.348 0 574.581 0C577.787 0.246331 580.782 1.69431 582.967 4.05253C585.152 6.41074 586.366 9.50589 586.366 12.72C586.366 15.9341 585.152 19.0293 582.967 21.3875C580.782 23.7457 577.787 25.1937 574.581 25.44C528.856 25.44 494.693 38.047 472.995 62.9607C438.307 102.808 446.041 161.415 446.116 162.015C446.349 163.666 446.254 165.346 445.836 166.96C445.419 168.574 444.687 170.089 443.683 171.421C442.679 172.752 441.422 173.873 439.984 174.718C438.546 175.564 436.956 176.117 435.303 176.347C434.714 176.495 434.109 176.571 433.502 176.573Z" fill="#FF786E"/>
    <path d="M273.827 374.13C305.645 374.13 331.439 338.267 331.439 294.028C331.439 249.788 305.645 213.925 273.827 213.925C242.009 213.925 216.215 249.788 216.215 294.028C216.215 338.267 242.009 374.13 273.827 374.13Z" fill="white"/>
    <path d="M275.665 350.091C299.452 350.091 318.734 326.779 318.734 298.021C318.734 269.263 299.452 245.95 275.665 245.95C251.879 245.95 232.596 269.263 232.596 298.021C232.596 326.779 251.879 350.091 275.665 350.091Z" fill="#0D1B0D"/>
    <path d="M304.831 312.077C312.598 312.077 318.894 305.784 318.894 298.021C318.894 290.258 312.598 283.965 304.831 283.965C297.064 283.965 290.768 290.258 290.768 298.021C290.768 305.784 297.064 312.077 304.831 312.077Z" fill="white"/>
    <path d="M435.317 374.13C467.136 374.13 492.929 338.267 492.929 294.028C492.929 249.788 467.136 213.925 435.317 213.925C403.499 213.925 377.705 249.788 377.705 294.028C377.705 338.267 403.499 374.13 435.317 374.13Z" fill="white"/>
    <path d="M448.422 341.468C445.097 341.446 441.891 340.225 439.392 338.032L402.076 304.97C400.437 303.529 399.172 301.714 398.389 299.678C397.605 297.642 397.328 295.446 397.579 293.279C397.83 291.112 398.604 289.039 399.832 287.237C401.061 285.434 402.708 283.955 404.633 282.928L441.87 262.482C445.049 260.756 448.783 260.362 452.252 261.388C455.721 262.414 458.64 264.776 460.368 267.953C462.095 271.13 462.488 274.863 461.462 278.33C460.435 281.797 458.073 284.715 454.894 286.441L434.518 297.623L457.371 317.909C458.709 319.088 459.802 320.518 460.587 322.12C461.372 323.722 461.832 325.462 461.944 327.242C462.055 329.022 461.815 330.808 461.236 332.495C460.657 334.182 459.751 335.738 458.57 337.075C457.269 338.462 455.697 339.568 453.951 340.323C452.206 341.079 450.324 341.468 448.422 341.468Z" fill="#0D1B0D"/>
    <path d="M936.823 525H848.355V209.706H968.351L1026.23 340.529L1057.29 421.941H1063.41L1093.05 340.529L1148.11 209.706H1268.11V525H1179.64V394.647L1182.93 341.941H1176.81L1158.93 394.647L1111.88 506.176H1004.59L957.528 394.647L939.646 341.941H933.529L936.823 394.647V525Z" fill="white"/>
    <path d="M1348.64 605H1305.82V525H1374.53C1381.58 525 1387.23 524.059 1391 522.176L1277.59 287.824H1378.29L1419.23 381L1436.17 435.588H1442.29L1457.82 380.059L1493.11 287.824H1591.93L1479.46 534.412C1454.05 590.412 1417.82 605 1348.64 605Z" fill="white"/>
    <path d="M1770.95 529.706C1661.31 529.706 1596.84 465.706 1596.84 367.353C1596.84 269 1661.31 205 1770.95 205C1876.83 205 1940.36 255.353 1940.36 339.588V347.588H1841.54V339.588C1841.54 303.824 1824.6 289.706 1772.36 289.706C1708.37 289.706 1690.96 304.765 1690.96 367.353C1690.96 429.941 1708.37 445 1772.36 445C1824.6 445 1841.54 430.882 1841.54 395.118V387.118H1940.36V395.118C1940.36 479.353 1876.83 529.706 1770.95 529.706Z" fill="white"/>
    <path d="M2052.13 525H1963.67V209.706H2052.13V525Z" fill="white"/>
    <path d="M2157.09 529.706C2103.45 529.706 2073.33 505.235 2073.33 464.765C2073.33 431.353 2096.39 407.353 2150.04 402.176L2246.5 392.765V388.059C2246.5 364.059 2236.15 360.294 2204.62 360.294C2175.45 360.294 2166.51 365.941 2166.51 385.706V387.588H2078.04V386.647C2078.04 323.588 2130.74 283.118 2211.21 283.118C2294.03 283.118 2334.03 323.588 2334.03 389.941V525H2251.21V475.118H2246.5C2237.56 508.529 2208.39 529.706 2157.09 529.706ZM2162.27 459.118C2162.27 466.647 2169.8 468.059 2183.45 468.059C2226.27 468.059 2243.68 462.882 2246.03 441.706L2173.56 450.176C2165.56 451.118 2162.27 453.941 2162.27 459.118Z" fill="white"/>
    <path d="M2514.13 525H2403.55L2343.78 287.824H2435.54L2452.48 373.471L2461.43 458.176H2467.54L2487.31 364.059L2510.84 287.824H2624.71L2648.24 364.059L2668.01 458.176H2674.12L2683.54 373.471L2700.01 287.824H2790.36L2727.77 525H2617.18L2586.6 429.941L2569.19 358.882H2563.07L2545.19 429.941L2514.13 525Z" fill="white"/>
  </g>
</svg>
